<svg width="96" height="97" viewBox="0 0 96 97" fill="none" xmlns="http://www.w3.org/2000/svg">
<circle cx="49.6756" cy="50.9504" r="46.0496" fill="#707070"/>
<path d="M28.1545 60.85V55.6C28.1545 51.3 29.4545 47.6 32.0545 44.5C34.6545 41.4 37.7795 39.85 41.4295 39.85C43.5795 39.85 45.4795 40.4 47.1295 41.5C48.8295 42.6 50.1045 43.95 50.9545 45.55V23.425C50.9545 22.375 51.5045 21.525 52.6045 20.875C53.7545 20.225 55.1795 19.9 56.8795 19.9C58.5295 19.9 59.8795 20.225 60.9295 20.875C62.0295 21.525 62.5795 22.375 62.5795 23.425V72.4C62.5795 73.35 62.0295 74.2 60.9295 74.95C59.8295 75.65 58.4795 76 56.8795 76C55.4795 76 54.2545 75.625 53.2045 74.875C52.2045 74.125 51.7045 73.3 51.7045 72.4V70.75C50.9045 72.4 49.5295 73.825 47.5795 75.025C45.6295 76.175 43.5045 76.75 41.2045 76.75C37.7545 76.75 34.7045 75.15 32.0545 71.95C29.4545 68.75 28.1545 65.05 28.1545 60.85ZM39.7795 60.85C39.7795 62.35 40.3045 63.7 41.3545 64.9C42.4545 66.05 43.7295 66.625 45.1795 66.625C46.6295 66.625 47.9545 66.025 49.1545 64.825C50.3545 63.625 50.9545 62.625 50.9545 61.825V55.6C50.9545 53.95 50.3545 52.6 49.1545 51.55C48.0045 50.5 46.7045 49.975 45.2545 49.975C43.7545 49.975 42.4545 50.55 41.3545 51.7C40.3045 52.85 39.7795 54.15 39.7795 55.6V60.85Z" fill="white"/>
</svg>
