<svg width="76" height="68" viewBox="0 0 76 68" fill="none" xmlns="http://www.w3.org/2000/svg">
<path d="M52.4656 47.7389C55.2397 47.4694 57.3442 45.224 57.2485 42.5296C57.1528 39.8352 54.7614 37.6796 51.8916 37.6796H51.7003C48.7349 37.7694 46.439 40.1046 46.5347 42.8889C46.6304 44.2361 47.2043 45.4037 48.0652 46.212C44.8128 52.2296 39.8386 56.6305 32.3772 60.3129C27.3073 62.8277 22.046 63.7259 16.7848 63.0972C12.4801 62.5583 9.13206 60.762 7.02756 57.7981C3.96647 53.3972 3.6795 48.637 6.26229 43.8768C8.07981 40.4639 10.9496 37.949 12.7671 36.6916C12.3845 35.524 11.8105 33.5481 11.5235 32.1111C-2.34702 41.5416 -0.912132 54.2953 3.29686 60.3129C6.45361 64.8037 12.8628 67.5879 19.9415 67.5879C21.8547 67.5879 23.7679 67.4083 25.6811 66.9592C37.9254 64.7139 47.2043 57.8879 52.4656 47.7389Z" fill="black"/>
<path d="M69.3015 36.6018C62.0314 28.6083 51.3176 24.2074 39.0733 24.2074H37.5427C36.6818 22.5907 34.8643 21.5129 32.8554 21.5129H32.6641C29.6987 21.6028 27.4029 23.9379 27.4986 26.7222C27.5942 29.4166 29.9857 31.5722 32.8554 31.5722H33.0468C35.1513 31.4824 36.9688 30.225 37.7341 28.5185H39.4559C46.726 28.5185 53.6134 30.4944 59.8313 34.3565C64.6142 37.3203 68.0579 41.1824 69.9711 45.8528C71.5973 49.625 71.5016 53.3074 69.7798 56.4509C67.1013 61.2111 62.6054 63.8157 56.6745 63.8157C52.8482 63.8157 49.2131 62.7379 47.2999 61.9296C46.2477 62.8278 44.3345 64.2648 42.9953 65.1629C47.1086 66.9592 51.3176 67.9472 55.3353 67.9472C64.5185 67.9472 71.3103 63.187 73.8931 58.4268C76.6672 53.2176 76.4759 44.2361 69.3015 36.6018Z" fill="black"/>
<path d="M20.7068 49.2658C20.8024 51.9603 23.1939 54.1158 26.0637 54.1158H26.255C29.2204 54.026 31.5162 51.6908 31.4206 48.9065C31.3249 46.2121 28.9335 44.0565 26.0637 44.0565H25.8724C25.681 44.0565 25.3941 44.0566 25.2028 44.1464C21.2807 38.039 19.6545 31.3927 20.2285 24.2075C20.6111 18.8186 22.5243 14.1482 25.8724 10.2862C28.6465 6.96303 34.0034 5.34636 37.6384 5.25655C47.7783 5.07692 52.0829 16.9325 52.3699 21.6927C53.6134 21.9621 55.7179 22.5908 57.1528 23.0399C56.0049 8.48988 46.439 0.945435 37.2558 0.945435C28.6465 0.945435 20.7068 6.7834 17.55 15.4056C13.1497 26.9019 16.0195 37.9491 21.3764 46.6612C20.8981 47.2899 20.6111 48.2778 20.7068 49.2658Z" fill="black"/>
</svg>
